<?xml version="1.0" encoding="utf-8"?>
<!-- Generator: Adobe Illustrator 23.0.1, SVG Export Plug-In . SVG Version: 6.00 Build 0)  -->
<svg version="1.1" id="Capa_1" xmlns="http://www.w3.org/2000/svg" xmlns:xlink="http://www.w3.org/1999/xlink" x="0px" y="0px"
	 viewBox="0 0 535 151" style="enable-background:new 0 0 535 151;" xml:space="preserve">
<style type="text/css">
	.st0{fill:#EA5D0B;}
	.st1{fill:#FFFFFF;}
</style>
<path class="st0" d="M103.5,29c0,13-10.3,23.3-23.3,23.3S56.9,42,56.9,29S67.2,5.7,80.2,5.7S103.5,16,103.5,29"/>
<path class="st0" d="M150.2,29c0,13-10.3,23.3-23.3,23.3S103.5,42,103.5,29s10.3-23.3,23.3-23.3C139.9,5.7,150.2,16,150.2,29"/>
<path class="st0" d="M103.5,122.4c0,13-10.3,23.3-23.3,23.3s-23.3-10.3-23.3-23.3S67.2,99,80.2,99S103.5,109.4,103.5,122.4"/>
<path class="st0" d="M150.2,122.4c0,13-10.3,23.3-23.3,23.3s-23.3-10.3-23.3-23.3S113.9,99,126.9,99
	C139.9,99,150.2,109.4,150.2,122.4"/>
<path class="st0" d="M56.9,75.7c0,13-10.3,23.3-23.3,23.3S10.2,88.7,10.2,75.7s10.3-23.3,23.3-23.3S56.9,62.7,56.9,75.7"/>
<path class="st0" d="M103.5,75.7c0,13-10.3,23.3-23.3,23.3S56.9,88.7,56.9,75.7s10.3-23.3,23.3-23.3S103.5,62.7,103.5,75.7"/>
<path class="st1" d="M408.4,56.1c-2.2,0-4.4,0.4-6.2,1.1c-1.8,0.9-3.3,2-4.8,3.7v-4.4h-6.8v37.9h7V77.2c0-5.3,0.9-9,2.4-11.2
	c1.5-2.2,4.2-3.5,7.7-3.5c3.3,0,5.7,0.9,7.3,2.9c1.5,2,2.4,4.8,2.4,9v20h7V72.8c0-5.5-1.3-9.7-4.2-12.5
	C417.7,57.4,413.7,56.1,408.4,56.1 M357.1,81.6c-1.5-2.6-2.2-5.5-2-8.4c0.2-2.9,1.5-5.3,3.7-7.3c2.2-2,4.6-3.3,7.5-3.5
	c2.9-0.2,5.7,0.4,8.6,2L357.1,81.6z M384,62.7c-2-1.8-4-3.3-5.7-4.4c-2-1.1-4-1.8-5.9-2.2c-3.3-0.7-6.8-0.4-9.9,0.4
	c-3.3,0.9-6.2,2.6-8.6,4.8c-2,2-3.5,4.2-4.6,6.6c-0.9,2.4-1.3,5.1-1.3,7.7c0,2.6,0.7,5.1,1.8,7.3c1.1,2.2,2.4,4.4,4.4,6.2
	s4.2,3.3,6.6,4.2c2.6,1.1,5.1,1.5,7.7,1.8c2.9,0,5.5-0.4,7.9-1.3c2-0.7,3.7-1.8,5.5-3.3v-9.9c0,0.2,0,0.2,0,0.2c0-0.2,0-0.7-0.4-0.2
	c-1.1,1.8-1.8,2.2-3.3,3.7c-2.4,2.2-5.1,3.5-8.1,3.7c-3.1,0.2-5.9-0.7-8.8-2.4l23.8-22L384,62.7z M446.7,72.4
	c-0.7-0.2-1.5-0.4-2.6-0.9c-3.7-1.3-5.7-3.1-5.7-5.3c0-1.3,0.4-2.2,1.3-3.1c0.9-0.9,2-1.3,3.1-1.3c1.3,0,2.4,0.4,3.3,1.1
	c0.9,0.9,1.3,1.8,1.3,3.3h6.8c-0.2-3.5-1.3-6.2-3.3-7.9c-2-2-4.6-2.9-7.9-2.9c-3.3,0-5.9,1.1-8.1,3.3c-2.2,2.2-3.3,4.8-3.3,7.9
	c0,1.8,0.2,3.3,1.1,4.8c0.7,1.3,1.8,2.6,3.1,3.7c0.7,0.7,2.6,1.3,5.3,2.4c1.1,0.4,1.8,0.7,2.4,0.9c1.8,0.7,2.9,1.3,3.5,2.4
	c0.7,0.9,1.1,2,1.1,3.3c0,1.5-0.4,2.9-1.5,3.7s-2.4,1.5-4,1.5c-1.8,0-3.1-0.7-4.4-2c-1.1-1.3-1.8-2.9-1.8-4.8h-6.6
	c0.2,4.2,1.5,7.3,3.7,9.7s5.3,3.5,8.8,3.5s6.6-1.1,9-3.3c2.4-2.2,3.5-5.1,3.5-8.4c0-2.9-0.7-5.3-2-7C452,75,449.8,73.5,446.7,72.4
	 M518.9,57.2c-1.5,0.9-2.9,2-4,3.7v-4.4h-6.6v37.9h7V73.3c0-3.5,0.7-5.9,2-7.7c1.3-1.5,3.7-2.4,6.8-2.6v-7
	C522.2,56.1,520.5,56.5,518.9,57.2 M489.4,84.9c-2.6,2.6-5.7,4-9.2,4c-3.7,0-7-1.3-9.7-4s-4-5.7-4-9.7c0-3.7,1.3-6.8,4-9.2
	c2.6-2.4,5.7-3.7,9.5-3.7c3.5,0,6.8,1.3,9.5,4c2.6,2.6,4,5.9,4,9.5C493.4,79.4,492.1,82.3,489.4,84.9 M492.9,61.2
	c-1.8-1.8-4-3.3-6.2-4.2c-2.2-0.9-4.8-1.3-7.5-1.3c-3.1,0-5.7,0.4-7.9,1.3c-2.4,0.9-4.4,2.4-6.4,4.4c-1.8,1.8-3.3,4-4.2,6.4
	c-0.9,2.4-1.5,4.8-1.5,7.5c0,5.7,2,10.6,5.9,14.3c4,3.7,8.8,5.7,14.7,5.7c2.4,0,4.8-0.4,7-1.3c2.2-0.9,4.2-2.2,6.2-4.2v4.6h7V56.8
	h-7L492.9,61.2L492.9,61.2z M281,56.1c-2.9,0-5.3,0.4-7.3,1.5s-3.5,2.6-4.8,4.8c-1.3-2.2-2.9-4-4.6-5.1c-2-1.1-4.2-1.5-7-1.5
	c-2.2,0-4,0.4-5.7,1.3c-1.8,0.9-3.1,2.2-4.4,3.7v-4.4h-6.4v37.9h6.8V75c0-4.4,0.7-7.7,2.2-9.7c1.5-2.2,3.7-3.1,6.8-3.1
	c2.9,0,5.1,1.1,6.4,3.1c1.3,2.2,2,5.5,2,10.1v19.2h6.8V74.8c0-4.6,0.7-7.7,2-9.7c1.3-2,3.5-2.9,6.6-2.9c2.6,0,4.6,0.9,6.2,2.6
	c1.5,1.8,2.2,4.4,2.2,7.5v22h7V71.5c0-4.6-1.3-8.4-4-11.2S285.4,56.1,281,56.1 M170.5,62.3c2.6,0,5.1,0.7,7,1.8
	c2,1.1,3.5,2.9,4.8,5.3h7.7c-1.5-4.4-4-7.7-7.3-10.1s-7.3-3.5-11.7-3.5c-2.9,0-5.5,0.4-8.1,1.5c-2.4,1.1-4.8,2.6-6.8,4.8
	c-1.8,2-3.3,4-4.2,6.4c-0.9,2.2-1.3,4.8-1.3,7.5c0,2.6,0.4,5.1,1.5,7.5c1.1,2.4,2.4,4.6,4.4,6.4c2,2,4.2,3.5,6.4,4.4
	c2.4,0.9,5.1,1.5,7.9,1.5c4.6,0,8.6-1.1,11.9-3.5s5.7-5.7,7.3-10.3h-7.7c-1.1,2.2-2.6,4.2-4.6,5.3c-2,1.3-4.2,2-6.6,2
	c-3.7,0-6.8-1.3-9.2-3.7c-2.4-2.4-3.7-5.7-3.7-9.5s1.3-6.8,3.7-9.5C164.1,63.6,166.9,62.3,170.5,62.3 M224.4,84.9
	c-2.4,2.6-5.5,3.7-9.2,3.7c-3.7,0-6.8-1.3-9.2-3.7c-2.4-2.4-3.7-5.7-3.7-9.5s1.3-7,3.7-9.5c2.4-2.4,5.5-3.7,9.2-3.7
	c3.7,0,6.8,1.3,9.2,3.7c2.4,2.4,3.7,5.7,3.7,9.5C228.1,79.2,226.8,82.5,224.4,84.9 M229.4,61.4c-2-2-4.2-3.3-6.6-4.4
	c-2.4-0.9-5.1-1.5-7.9-1.5c-2.6,0-5.3,0.7-7.7,1.8c-2.4,1.1-4.6,2.6-6.6,4.6c-1.8,1.8-3.3,4-4.2,6.4c-0.9,2.4-1.3,4.8-1.3,7.5
	c0,2.6,0.4,5.1,1.5,7.5c1.1,2.4,2.4,4.6,4.4,6.4c2,2,4.2,3.5,6.6,4.4c2.4,1.1,5.1,1.5,7.9,1.5c2.9,0,5.5-0.4,7.9-1.5
	c2.4-1.1,4.8-2.6,6.8-4.8c1.8-1.8,3.1-4,4-6.4c0.9-2.4,1.5-5.1,1.5-7.5c0-2.6-0.4-5.1-1.5-7.5C232.7,65.4,231.2,63.2,229.4,61.4
	 M332.7,85.2c-2.6,2.6-5.7,3.7-9.5,3.7c-3.5,0-6.8-1.3-9.2-4c-2.6-2.6-4-5.9-4-9.7c0-3.5,1.3-6.6,4-9.2c2.6-2.6,5.7-4,9.2-4
	c3.7,0,7,1.3,9.7,4c2.6,2.6,4,5.7,4,9.7C336.7,79.4,335.3,82.5,332.7,85.2 M323.4,55.9c-2.4,0-4.8,0.4-7,1.3
	c-2.2,0.9-4.2,2.2-6.2,4.2v-4.6h-7v51.1h7V90c2,1.8,4,3.3,6.2,4.2c2.2,0.9,4.8,1.3,7.5,1.3c3.1,0,5.7-0.4,7.9-1.5
	c2.4-0.9,4.4-2.4,6.4-4.4c1.8-1.8,3.3-4,4.2-6.4c0.9-2.4,1.5-4.8,1.5-7.5c0-5.7-2-10.6-5.9-14.3C334.2,57.7,329.4,55.9,323.4,55.9"
	/>
</svg>
