<?xml version="1.0" encoding="utf-8"?>
<!-- Generator: Adobe Illustrator 15.0.0, SVG Export Plug-In . SVG Version: 6.00 Build 0)  -->
<!DOCTYPE svg PUBLIC "-//W3C//DTD SVG 1.1//EN" "http://www.w3.org/Graphics/SVG/1.1/DTD/svg11.dtd">
<svg version="1.1" id="Capa_1" xmlns="http://www.w3.org/2000/svg" xmlns:xlink="http://www.w3.org/1999/xlink" x="0px" y="0px"
	 width="482.311px" height="119.092px" viewBox="0 0 482.311 119.092" enable-background="new 0 0 482.311 119.092"
	 xml:space="preserve">
<g id="Capa_1_1_" display="none">
	<g display="inline">
		<path fill="#4E4D51" d="M85.162,14.854c0,0-7.105,20.605-8.622,24.384c-1.333-3.312-8.67-24.384-8.67-24.384H55.645l20.997,51.138
			l21.053-51.138H85.162z"/>
		<path fill="#4E4D51" d="M300.794,45.866l-0.365-0.508c3.677-1.685,6.55-4.736,8.043-8.525c0.72-1.789,1.113-3.758,1.113-5.81
			c0-3.385-1.062-6.491-2.854-9.068c-0.812-1.289-1.861-2.408-3.185-3.353c-0.774-0.57-1.647-1.078-2.623-1.521
			c-0.237-0.104-0.506-0.228-0.77-0.334c-0.043-0.024-0.089-0.033-0.136-0.063c-1.518-0.587-3.214-1.026-5.134-1.323
			c-0.407-0.065-0.821-0.125-1.255-0.184c-0.461-0.045-0.943-0.078-1.418-0.121c-1.291-0.103-2.646-0.166-4.127-0.166l-3.355-0.027
			h-1.059l-1.146-0.009l-10.778-0.009v50.02h11.93v-5.006V25.373h6.388c2.114,0.03,4.028,0.879,5.442,2.235
			c1.177,1.186,1.984,2.748,2.228,4.516c0.016,0.244,0.029,0.518,0.029,0.772c0,2.205-0.871,4.29-2.263,5.808
			c-1.707,1.492-3.901,2.396-6.326,2.412h-5.371c0.619,0.9,1.604,2.314,2.988,4.141c0.053,0.049,0.097,0.135,0.16,0.213
			c0.401,0.523,0.836,1.088,1.28,1.666c5.628,7.334,13.896,17.73,13.896,17.73h13.863C315.994,64.865,305.566,51.852,300.794,45.866
			 M290.214,25.373h-0.051c0.008-0.009,0.012-0.009,0.035-0.009h0.004h0.11C290.283,25.365,290.246,25.365,290.214,25.373
			 M292.688,25.768c0.057,0.018,0.11,0.022,0.159,0.043h0.009C292.804,25.791,292.751,25.785,292.688,25.768"/>
		<polygon fill="#4E4D51" points="173.158,14.854 173.158,26.025 183.576,26.025 183.576,64.874 195.203,64.874 195.203,26.025 
			205.619,26.025 205.619,14.854 		"/>
		<path fill="#4E4D51" d="M245.374,14.854v28.965c0,10.7-5.258,10.7-7.499,10.7c-2.247,0-7.506,0-7.506-10.7V14.854h-11.631v30.824
			c0,11.851,7.869,20.125,19.137,20.125s19.132-8.274,19.132-20.125V14.854H245.374z"/>
		<path fill="#4E4D51" d="M36.144,13.815L12.76,64.865h12.836l2.585-7.105h15.914l2.603,7.105h12.838L36.144,13.815z M36.104,34.982
			l4.374,12.389h-8.682L36.104,34.982z"/>
		<path fill="#4E4D51" d="M149.139,13.815l-23.387,51.05h12.835l2.587-7.105h15.913l2.597,7.105h12.843L149.139,13.815z
			 M149.096,34.982l4.377,12.389h-8.682L149.096,34.982z"/>
		<rect x="106.029" y="14.854" fill="#4E4D51" width="11.628" height="50.021"/>
		<g>
			<path fill="#009BF8" d="M336.587,62.04c0-0.965,0.328-1.779,0.992-2.441s1.479-0.994,2.444-0.994
				c0.966,0,1.779,0.332,2.443,0.994c0.66,0.662,0.994,1.479,0.994,2.441c0,0.967-0.334,1.779-0.994,2.443
				c-0.664,0.662-1.479,0.994-2.443,0.994c-0.967,0-1.78-0.332-2.444-0.994C336.916,63.82,336.587,63.006,336.587,62.04z"/>
			<path fill="#009BF8" d="M402.656,24.553c-2.449-2.113-4.957-3.675-7.519-4.688c-2.562-1.011-5.26-1.517-8.094-1.517
				c-6.381,0-11.565,2.023-15.559,6.069c-3.988,4.045-5.982,9.315-5.982,15.811c0,3.258,0.488,6.191,1.467,8.801
				c0.979,2.604,2.47,4.921,4.47,6.942c1.977,1.979,4.239,3.483,6.791,4.52c2.551,1.035,5.287,1.551,8.211,1.551
				c2.832,0,5.598-0.482,8.295-1.449c2.694-0.967,5.245-2.393,7.649-4.281v5.261c-2.43,1.481-4.996,2.625-7.702,3.422
				c-2.709,0.799-5.392,1.196-8.041,1.196c-3.572,0-6.99-0.643-10.248-1.922c-3.263-1.28-6.06-3.078-8.396-5.395
				c-2.404-2.385-4.228-5.146-5.463-8.295c-1.236-3.146-1.854-6.598-1.854-10.351c0-3.686,0.636-7.125,1.902-10.315
				c1.27-3.19,3.098-5.944,5.48-8.26c2.312-2.27,5.104-4.046,8.377-5.326c3.27-1.28,6.67-1.922,10.197-1.922
				c3.146,0,6.062,0.432,8.747,1.298c2.687,0.865,5.133,2.163,7.332,3.894L402.656,24.553z"/>
			<path fill="#009BF8" d="M469.771,40.295c0,3.483-0.662,6.793-1.987,9.93c-1.328,3.138-3.238,5.929-5.734,8.379
				c-2.541,2.474-5.407,4.354-8.602,5.646s-6.568,1.938-10.123,1.938c-3.554,0-6.92-0.646-10.103-1.938
				c-3.186-1.293-6.035-3.174-8.553-5.646c-2.521-2.496-4.438-5.301-5.754-8.412c-1.314-3.112-1.973-6.411-1.973-9.896
				c0-3.527,0.656-6.86,1.973-9.996c1.316-3.134,3.232-5.95,5.754-8.444c2.473-2.449,5.295-4.304,8.467-5.562
				c3.17-1.258,6.566-1.889,10.188-1.889c3.645,0,7.059,0.636,10.237,1.905c3.185,1.271,6.013,3.116,8.484,5.545
				c2.518,2.494,4.436,5.311,5.752,8.444C469.115,33.435,469.771,36.768,469.771,40.295z M443.324,62.174
				c2.926,0,5.688-0.537,8.301-1.615c2.608-1.08,4.961-2.651,7.051-4.723c2.05-2.09,3.615-4.465,4.707-7.131
				c1.093-2.662,1.64-5.465,1.64-8.41c0-2.967-0.541-5.771-1.621-8.41c-1.078-2.641-2.652-5.017-4.726-7.13
				c-2.047-2.068-4.381-3.641-6.998-4.72c-2.62-1.08-5.403-1.619-8.354-1.619c-2.925,0-5.681,0.539-8.269,1.619
				c-2.586,1.079-4.924,2.651-7.016,4.72c-2.07,2.134-3.646,4.512-4.727,7.13c-1.078,2.619-1.619,5.421-1.619,8.41
				c0,2.969,0.541,5.771,1.619,8.41c1.08,2.643,2.653,5.021,4.727,7.131c2.068,2.092,4.385,3.67,6.947,4.736
				C437.554,61.643,440.333,62.174,443.324,62.174z"/>
			<path fill="#009BF8" d="M509.108,66.793l-17.327-39.611l-3.742,37.691h-4.619l6.711-51.448l18.91,43.93l19.621-43.93l6.34,51.448
				h-4.619l-3.676-37.691L509.108,66.793z"/>
		</g>
	</g>
</g>
<g id="Capa_3">
</g>
<g id="Capa_2">
	<path fill="#FFFFFF" d="M68.489,49.437c0.552-0.871,0.777-1.581,2.244-2.806c0.852-0.713,1.775-1.305,2.724-1.752
		c-0.286,0.939-0.286,1.968,0.079,2.95c0.145,0.396,0.345,0.758,0.582,1.087C72.243,49.09,70.369,49.263,68.489,49.437
		 M77.624,43.135c1.55-0.619,3.317,0.146,3.943,1.706c0.478,1.194,0.148,2.511-0.725,3.343c-1.209,0.13-2.418,0.261-3.629,0.393
		c-0.552-0.333-1.009-0.839-1.265-1.484C75.322,45.531,76.075,43.755,77.624,43.135 M1.02,55.446c0,0,3.694-0.082,4.449-0.125
		c33.273-1.873,67.29-4.562,100.838-6.411c-2.741,3.585-10.546,7.362-17.245,8.918c-5.847,1.356-12.899,0.071-18.075-0.372
		c-17.339-1.487-35.437,0.183-53.38,0.479c16.175,0.191,36.001-0.868,51.963,0.76c5.424,0.555,11.423,1.825,16.744,1.454
		c5.748-0.4,15.65-4.091,20.562-7.736c1.424-1.059,4.713-4.131,3.204-6.116c-0.792-1.04-6.44-0.239-6.44-0.239
		c-7.033,0.713-14.141,1.408-21.288,2.086c0.55-1.111,0.665-2.422,0.206-3.659c-0.901-2.428-3.65-3.646-6.142-2.724
		c-0.053,0.021-0.103,0.044-0.154,0.066c-1.49,0.514-2.964,1.276-4.346,2.3c-2.06,1.528-3.627,3.417-4.654,5.426
		C45.038,51.589,22.644,53.514,1.02,55.446"/>
	<path fill="#FFFFFF" d="M235.314,11.673c-39.045,1.103-73.712,23.334-105.368,39.498C150.952,40.445,197.584,5.321,235.314,11.673"
		/>
	<path fill="#FFFFFF" d="M188.684,9.018c-24.864,12.038-51.022,24.676-74.708,36.224l-0.043-0.06
		c9.022-4.828,74.647-40.801,81.702-42.607c10.726-2.748,21.071,0.77,27.674,3.977c-10.649-0.661-24.08,2.523-36.047,7.416
		C187.542,12.129,188.009,10.567,188.684,9.018"/>
	<path fill="#FFFFFF" d="M187.366,50.218c-5.347-1.229-10.888-1.688-15.047-2.062c-8.071-0.723-17.908-0.453-27.558,3.417
		c14.228-6.721,28.883-6.497,41.785-5.062c0,0,47.012-14.879,56.381-32.606l0.047,0.006
		C235.843,30.276,216.078,38.782,187.366,50.218"/>
	<path fill="#FFFFFF" d="M154.875,32.375c-0.061,1.668-0.836,2.994-1.736,2.962c-0.896-0.033-1.579-1.41-1.519-3.077
		c0.061-1.667,0.838-2.993,1.736-2.961C154.255,29.33,154.934,30.709,154.875,32.375"/>
	<path fill="#FFFFFF" d="M149.109,35.452c-0.112,1.664-0.927,2.964-1.825,2.904c-0.897-0.059-1.534-1.457-1.425-3.124
		c0.112-1.663,0.931-2.966,1.827-2.904C148.582,32.389,149.222,33.786,149.109,35.452"/>
	<path fill="#FFFFFF" d="M143.009,38.686c-0.061,1.666-0.836,2.991-1.734,2.96c-0.897-0.031-1.579-1.407-1.518-3.076
		c0.059-1.669,0.836-2.992,1.734-2.963C142.391,35.64,143.069,37.017,143.009,38.686"/>
	<path fill="#FFFFFF" d="M160.976,29.14c-0.112,1.665-0.93,2.968-1.826,2.906c-0.897-0.059-1.535-1.458-1.424-3.122
		c0.112-1.665,0.93-2.966,1.827-2.906C160.45,26.078,161.085,27.475,160.976,29.14"/>
	<path fill="#FFFFFF" d="M58.414,96.024h3.656c3.254,0,5.483-1.939,5.483-6.109c0-3.997-1.601-6.281-5.711-6.281h-3.427
		L58.414,96.024L58.414,96.024z M50.192,77.58h14.39c8.336,0,11.192,6.109,11.192,12.222c0,8.45-5.197,12.275-12.963,12.275h-4.397
		v16.273h-8.222V77.58z"/>
	<path fill="#FFFFFF" d="M85.768,102.99h7.996l-3.939-18.328h-0.114L85.768,102.99z M84.684,77.58h10.165l10.791,40.771h-8.563
		l-1.885-8.623H84.34l-1.884,8.623h-8.564L84.684,77.58z"/>
	<path fill="#FFFFFF" d="M115.12,105.617v1.198c0,3.827,1.084,6.282,5.424,6.282c2.513,0,4.91-1.601,4.91-5.024
		c0-3.712-1.883-5.083-7.308-6.968c-7.308-2.513-10.677-5.538-10.677-12.334c0-7.937,4.854-11.991,12.618-11.991
		c7.31,0,12.62,3.142,12.62,10.964v1.143h-7.88c0-3.825-1.313-6.052-4.454-6.052c-3.711,0-4.681,2.341-4.681,4.739
		c0,2.512,0.742,4.054,4.226,5.537l6.337,2.741c6.168,2.686,7.767,5.824,7.767,10.792c0,8.622-5.254,12.505-14.162,12.505
		c-9.309,0-12.962-4.34-12.962-11.878v-1.654H115.12z"/>
	<path fill="#FFFFFF" d="M147.153,102.99h7.995l-3.939-18.328h-0.114L147.153,102.99z M146.068,77.58h10.166l10.791,40.771h-8.564
		l-1.885-8.623h-10.851l-1.883,8.623h-8.565L146.068,77.58z"/>
	<path fill="#FFFFFF" d="M178.104,112.298h3.197c3.939,0,6.623-1.428,6.623-6.167c0-4.74-2.683-6.11-6.279-6.11h-3.541V112.298
		L178.104,112.298z M178.104,94.311h2.341c4.513,0,6.565-1.542,6.565-5.367c0-3.883-1.884-5.312-5.938-5.312h-2.969V94.311z
		 M169.881,77.58h13.76c6.739,0,11.594,2.514,11.594,10.336c0,4.396-2.112,7.767-6.168,8.908v0.112
		c4.512,0.629,7.425,4.055,7.425,9.479c0,6.396-3.144,11.935-12.735,11.935h-13.874L169.881,77.58L169.881,77.58z"/>
	<path fill="#FFFFFF" d="M214.648,113.098c4.853,0,5.653-4.169,5.653-15.132c0-10.907-0.801-15.133-5.653-15.133
		c-4.854,0-5.653,4.226-5.653,15.133C208.995,108.929,209.794,113.098,214.648,113.098 M214.648,76.781
		c12.334,0,13.875,8.796,13.875,21.187s-1.543,21.185-13.875,21.185c-12.334,0-13.875-8.794-13.875-21.185
		S202.314,76.781,214.648,76.781"/>
	<path fill="#FFFFFF" d="M241.602,95.395h3.427c3.938,0,6.166-1.712,6.166-6.108c0-3.769-1.998-5.653-5.71-5.653h-3.883V95.395z
		 M233.379,77.58h15.189c6.736,0,10.85,3.54,10.85,10.507c0,5.425-2.171,9.079-6.796,10.051v0.114
		c5.595,0.742,6.452,3.825,6.565,12.447c0.059,4.282,0.287,6.511,1.827,7.309v0.344h-8.907c-0.801-1.142-0.971-2.684-1.027-4.284
		l-0.229-7.82c-0.114-3.198-1.541-5.141-4.854-5.141h-4.396v17.245h-8.223V77.58z"/>
	<path fill="#FFFFFF" d="M273.75,112.298h3.653c5.711,0,6.853-3.597,6.853-14.676c0-9.251-0.743-13.99-7.023-13.99h-3.481
		L273.75,112.298L273.75,112.298z M265.525,77.58h13.478c11.421,0,13.478,7.824,13.478,19.813c0,14.447-3.084,20.957-13.988,20.957
		h-12.965V77.58H265.525z"/>
	<path fill="#FFFFFF" d="M310.922,113.098c4.854,0,5.653-4.169,5.653-15.132c0-10.907-0.802-15.133-5.653-15.133
		c-4.854,0-5.652,4.226-5.652,15.133C305.27,108.929,306.069,113.098,310.922,113.098 M310.922,76.781
		c12.335,0,13.876,8.796,13.876,21.187s-1.541,21.185-13.876,21.185c-12.334,0-13.876-8.794-13.876-21.185
		S298.588,76.781,310.922,76.781"/>
</g>
<g>
	<g>
		<g>
			<path fill="#FFFFFF" d="M377.652,95.793c0,0-3.143,9.101-3.804,10.774c-0.587-1.461-3.838-10.774-3.838-10.774h-5.402
				l9.273,22.605l9.311-22.605H377.652z"/>
		</g>
		<g>
			<path fill="#FFFFFF" d="M472.946,109.497l-0.171-0.225c1.627-0.745,2.89-2.096,3.561-3.77c0.314-0.795,0.497-1.661,0.497-2.568
				c0-1.497-0.477-2.862-1.275-4.011c-0.351-0.568-0.822-1.068-1.399-1.476c-0.346-0.256-0.726-0.477-1.162-0.673l-0.33-0.146
				l-0.075-0.021c-0.661-0.277-1.417-0.456-2.262-0.599l-0.551-0.078l-0.62-0.051c-0.572-0.045-1.184-0.071-1.833-0.071
				l-1.486-0.016h-0.461h-0.513h-4.762v22.092h5.274v-2.205v-15.245h2.818c0.93,0.011,1.784,0.387,2.406,0.992
				c0.525,0.528,0.877,1.214,0.992,1.993l0.007,0.35c0,0.963-0.383,1.893-1.003,2.56c-0.754,0.657-1.725,1.057-2.797,1.07h-2.369
				c0.275,0.389,0.712,1.02,1.326,1.829l0.059,0.085l0.569,0.749c2.485,3.233,6.145,7.823,6.145,7.823h6.124
				C479.655,117.887,475.046,112.136,472.946,109.497 M468.263,100.439h-0.015H468.263h0.049H468.263z M469.364,100.614l0.062,0.016
				L469.364,100.614z"/>
		</g>
		<g>
			<polygon fill="#FFFFFF" points="416.538,95.793 416.538,100.732 421.157,100.732 421.157,117.906 426.281,117.906 
				426.281,100.732 430.885,100.732 430.885,95.793 			"/>
		</g>
		<g>
			<path fill="#FFFFFF" d="M448.456,95.793v12.795c0,4.735-2.33,4.735-3.318,4.735c-0.989,0-3.318,0-3.318-4.735V95.793h-5.139
				v13.62c0,5.236,3.481,8.891,8.457,8.891c4.979,0,8.45-3.654,8.45-8.891v-13.62H448.456z"/>
		</g>
		<g>
			<path fill="#FFFFFF" d="M355.993,95.331l-10.328,22.56h5.664l1.141-3.141h7.029l1.147,3.141h5.677L355.993,95.331z
				 M355.969,104.689l1.938,5.465h-3.834L355.969,104.689z"/>
		</g>
		<g>
			<path fill="#FFFFFF" d="M405.926,95.331l-10.344,22.56h5.676l1.145-3.141h7.038l1.141,3.141h5.668L405.926,95.331z
				 M405.903,104.689l1.934,5.465h-3.832L405.903,104.689z"/>
		</g>
		<g>
			<rect x="386.872" y="95.793" fill="#FFFFFF" width="5.137" height="22.1"/>
		</g>
	</g>
	<g>
		<g>
			<path fill="#FFFFFF" d="M356.966,86.492c0,0.812-0.16,1.578-0.466,2.306c-0.312,0.728-0.751,1.378-1.339,1.95
				c-0.583,0.572-1.253,1.012-1.996,1.309c-0.742,0.309-1.521,0.459-2.347,0.459c-0.827,0-1.612-0.15-2.351-0.459
				c-0.733-0.297-1.4-0.736-1.982-1.309c-0.587-0.576-1.033-1.236-1.339-1.957c-0.305-0.722-0.457-1.486-0.457-2.299
				c0-0.82,0.152-1.596,0.457-2.318c0.306-0.731,0.752-1.387,1.339-1.967c0.571-0.565,1.227-1.002,1.969-1.292
				c0.732-0.29,1.524-0.44,2.364-0.44c0.844,0,1.64,0.15,2.382,0.448c0.737,0.294,1.391,0.72,1.962,1.284
				c0.589,0.58,1.036,1.235,1.342,1.967C356.809,84.897,356.966,85.672,356.966,86.492 M350.818,91.575
				c0.68,0,1.317-0.126,1.928-0.374c0.606-0.252,1.153-0.614,1.638-1.097c0.478-0.487,0.842-1.037,1.094-1.661
				c0.253-0.615,0.383-1.267,0.383-1.951c0-0.691-0.13-1.336-0.378-1.953c-0.252-0.614-0.621-1.166-1.099-1.657
				c-0.474-0.479-1.019-0.843-1.625-1.097c-0.606-0.253-1.256-0.37-1.939-0.37c-0.685,0-1.321,0.116-1.928,0.37
				c-0.598,0.255-1.143,0.619-1.629,1.097c-0.478,0.499-0.842,1.052-1.096,1.657c-0.247,0.612-0.375,1.26-0.375,1.953
				c0,0.688,0.128,1.343,0.375,1.951c0.254,0.617,0.618,1.166,1.096,1.661c0.486,0.486,1.021,0.851,1.619,1.097
				C349.481,91.453,350.122,91.575,350.818,91.575"/>
		</g>
		<g>
			<path fill="#FFFFFF" d="M367.835,92.208h-1.269l-4.026-5.468h-0.63v5.468h-1.042v-11.47h2.108c1.244,0,2.175,0.254,2.79,0.772
				c0.622,0.519,0.931,1.3,0.931,2.35c0,0.889-0.263,1.593-0.793,2.107c-0.533,0.517-1.263,0.772-2.19,0.772L367.835,92.208z
				 M361.91,81.64v4.249h1.05c0.97,0,1.651-0.159,2.034-0.468c0.384-0.312,0.57-0.847,0.57-1.589c0-0.788-0.196-1.354-0.591-1.686
				c-0.394-0.331-1.073-0.508-2.014-0.508L361.91,81.64L361.91,81.64z"/>
		</g>
		<g>
			<path fill="#FFFFFF" d="M380.339,83.617c-0.463-0.72-1.041-1.264-1.717-1.634c-0.679-0.374-1.44-0.556-2.298-0.556
				c-1.418,0-2.57,0.48-3.469,1.442c-0.89,0.963-1.34,2.202-1.34,3.733c0,0.683,0.124,1.327,0.358,1.938
				c0.237,0.601,0.584,1.139,1.039,1.61c0.459,0.468,0.975,0.812,1.539,1.046c0.574,0.23,1.195,0.347,1.871,0.347
				c1.285,0,2.334-0.377,3.142-1.136c0.805-0.75,1.217-1.749,1.24-2.964h-3.956v-0.901h5.097v0.122c0,1.823-0.493,3.265-1.497,4.29
				c-0.992,1.041-2.367,1.551-4.119,1.551c-1.736,0-3.142-0.558-4.216-1.657c-1.076-1.108-1.615-2.559-1.615-4.356
				c0-0.824,0.135-1.605,0.411-2.337c0.267-0.733,0.66-1.373,1.171-1.918c0.557-0.585,1.177-1.032,1.872-1.319
				c0.703-0.294,1.48-0.438,2.332-0.438c1.165,0,2.164,0.204,2.992,0.629c0.833,0.42,1.471,1.04,1.92,1.854L380.339,83.617z"/>
		</g>
		<g>
			<path fill="#FFFFFF" d="M384.081,92.208l5.037-11.931l4.824,11.931h-1.133l-1.469-3.89h-4.684l-1.518,3.89H384.081z
				 M387.014,87.431h3.99l-1.962-4.995L387.014,87.431z"/>
		</g>
		<g>
			<polygon fill="#FFFFFF" points="396.833,92.205 397.81,92.205 397.81,82.932 405.923,92.539 405.923,80.739 404.952,80.739 
				404.952,89.848 396.833,80.255 			"/>
		</g>
		<g>
			<rect x="410.385" y="80.738" fill="#FFFFFF" width="1.042" height="11.468"/>
		</g>
		<g>
			<polygon fill="#FFFFFF" points="414.663,92.208 421.474,81.683 415.659,81.683 415.659,80.739 423.256,80.739 416.475,91.238 
				422.565,91.238 422.565,92.208 			"/>
		</g>
		<g>
			<path fill="#FFFFFF" d="M424.916,92.208l5.037-11.931l4.82,11.931h-1.132l-1.465-3.89h-4.684l-1.523,3.89H424.916z
				 M427.844,87.431h3.991l-1.953-4.995L427.844,87.431z"/>
		</g>
		<g>
			<path fill="#FFFFFF" d="M446.59,82.837c-0.562-0.492-1.15-0.858-1.744-1.085c-0.596-0.241-1.22-0.353-1.884-0.353
				c-1.482,0-2.686,0.46-3.608,1.406c-0.928,0.938-1.39,2.163-1.39,3.673c0,0.757,0.115,1.438,0.335,2.044
				c0.232,0.604,0.578,1.145,1.042,1.619c0.457,0.458,0.986,0.801,1.578,1.042c0.591,0.245,1.227,0.361,1.901,0.361
				c0.66,0,1.304-0.11,1.933-0.334c0.631-0.227,1.222-0.559,1.775-0.999v1.225c-0.56,0.342-1.161,0.607-1.789,0.797
				c-0.629,0.178-1.25,0.279-1.864,0.279c-0.833,0-1.628-0.156-2.39-0.448c-0.754-0.298-1.404-0.719-1.944-1.261
				c-0.558-0.548-0.981-1.193-1.264-1.922c-0.292-0.73-0.438-1.53-0.438-2.404c0-0.855,0.15-1.66,0.449-2.396
				c0.292-0.739,0.712-1.38,1.273-1.919c0.527-0.531,1.18-0.94,1.944-1.24c0.757-0.297,1.546-0.447,2.369-0.447
				c0.726,0,1.408,0.105,2.03,0.306c0.621,0.2,1.192,0.502,1.705,0.905L446.59,82.837z"/>
		</g>
		<g>
			<rect x="450.456" y="80.738" fill="#FFFFFF" width="1.039" height="11.468"/>
		</g>
		<g>
			<path fill="#FFFFFF" d="M467.689,86.492c0,0.812-0.155,1.58-0.469,2.306c-0.3,0.729-0.745,1.38-1.324,1.948
				c-0.589,0.574-1.255,1.014-1.999,1.309c-0.744,0.311-1.527,0.459-2.353,0.459c-0.823,0-1.604-0.148-2.345-0.459
				c-0.739-0.295-1.404-0.734-1.986-1.309c-0.589-0.575-1.029-1.231-1.339-1.954c-0.306-0.721-0.458-1.487-0.458-2.3
				c0-0.82,0.152-1.596,0.458-2.318c0.31-0.731,0.75-1.387,1.339-1.97c0.571-0.565,1.225-0.999,1.967-1.289
				c0.736-0.291,1.529-0.439,2.364-0.439c0.849,0,1.645,0.148,2.377,0.442c0.738,0.299,1.398,0.722,1.975,1.286
				c0.585,0.583,1.026,1.238,1.333,1.97C467.534,84.897,467.689,85.672,467.689,86.492 M461.545,91.575
				c0.682,0,1.322-0.126,1.934-0.374c0.603-0.252,1.146-0.617,1.632-1.097c0.475-0.487,0.848-1.039,1.094-1.661
				c0.253-0.615,0.385-1.267,0.385-1.951c0-0.693-0.125-1.336-0.379-1.953c-0.252-0.614-0.616-1.166-1.099-1.656
				c-0.47-0.479-1.015-0.844-1.622-1.094c-0.615-0.256-1.263-0.379-1.944-0.379c-0.672,0-1.319,0.121-1.917,0.379
				c-0.604,0.25-1.148,0.615-1.636,1.094c-0.476,0.5-0.843,1.051-1.093,1.656c-0.256,0.609-0.379,1.26-0.379,1.953
				c0,0.688,0.123,1.343,0.379,1.951c0.25,0.62,0.617,1.167,1.093,1.661c0.487,0.484,1.021,0.851,1.619,1.099
				C460.205,91.453,460.85,91.575,461.545,91.575 M460.516,79.61l1.667-2.74h1.285l-2.215,2.74H460.516z"/>
		</g>
		<g>
			<polygon fill="#FFFFFF" points="471.597,92.205 472.574,92.205 472.574,82.928 480.691,92.539 480.691,80.739 479.72,80.739 
				479.72,89.848 471.597,80.255 			"/>
		</g>
	</g>
</g>
</svg>
